<svg width="16" height="16" viewBox="0 0 16 16" fill="none" xmlns="http://www.w3.org/2000/svg">
<path d="M1 0V10C1 12.7614 3.23858 15 6 15H16" stroke="black" stroke-width="2"/>
<path d="M16 1H0" stroke="black" stroke-width="2" stroke-linejoin="round"/>
<line x1="5" y1="7" x2="6" y2="7" stroke="black"/>
<line x1="4" y1="8" x2="5" y2="8" stroke="black"/>
<line x1="5" y1="9" x2="6" y2="9" stroke="black"/>
<line x1="6" y1="10" x2="7" y2="10" stroke="black"/>
<line x1="8" y1="12" x2="9" y2="12" stroke="black"/>
<line x1="7" y1="11" x2="8" y2="11" stroke="black"/>
<line x1="6" y1="6" x2="7" y2="6" stroke="black"/>
<line x1="7" y1="5" x2="8" y2="5" stroke="black"/>
<line x1="8" y1="4" x2="9" y2="4" stroke="black"/>
<line x1="9.5" y1="2.5" x2="9.5" y2="5.5" stroke="black"/>
<line x1="13" y1="6" x2="9" y2="6" stroke="black"/>
<line x1="13" y1="10" x2="9" y2="10" stroke="black"/>
<line x1="9.5" y1="10.5" x2="9.5" y2="13.5" stroke="black"/>
<line x1="13.5" y1="5.5" x2="13.5" y2="10.5" stroke="black"/>
</svg>
