<svg width="16" height="16" viewBox="0 0 16 16" fill="none" xmlns="http://www.w3.org/2000/svg">
<path d="M1 0V10C1 12.7614 3.23858 15 6 15H16" stroke="black" stroke-width="2"/>
<path d="M16 1H0" stroke="black" stroke-width="2" stroke-linejoin="round"/>
<line y1="-0.5" x2="1" y2="-0.5" transform="matrix(0 -1 -1 0 4 8.49557)" stroke="black"/>
<line y1="-0.5" x2="3" y2="-0.5" transform="matrix(0 -1 -1 0 5 9.49557)" stroke="black"/>
<line y1="-0.5" x2="5" y2="-0.5" transform="matrix(0 -1 -1 0 6 10.4956)" stroke="black"/>
<line y1="-0.5" x2="7" y2="-0.5" transform="matrix(0 -1 -1 0 7 11.4956)" stroke="black"/>
<line y1="-0.5" x2="9" y2="-0.5" transform="matrix(0 -1 -1 0 8 12.4956)" stroke="black"/>
<line y1="-0.5" x2="11" y2="-0.5" transform="matrix(0 -1 -1 0 9 13.4956)" stroke="black"/>
<rect width="4" height="5" transform="matrix(1 0 0 -1 10 10.4956)" fill="black"/>
</svg>
