<svg width="16" height="16" viewBox="0 0 16 16" fill="none" xmlns="http://www.w3.org/2000/svg">
<path d="M15 0V10C15 12.7614 12.7614 15 10 15H4.76837e-07" stroke="black" stroke-width="2"/>
<path d="M0 1H16" stroke="black" stroke-width="2" stroke-linejoin="round"/>
<line y1="-0.5" x2="1" y2="-0.5" transform="matrix(-1 0 0 1 11 7.5)" stroke="black"/>
<line y1="-0.5" x2="1" y2="-0.5" transform="matrix(-1 0 0 1 12 8.5)" stroke="black"/>
<line y1="-0.5" x2="1" y2="-0.5" transform="matrix(-1 0 0 1 11 9.5)" stroke="black"/>
<line y1="-0.5" x2="1" y2="-0.5" transform="matrix(-1 0 0 1 10 10.5)" stroke="black"/>
<line y1="-0.5" x2="1" y2="-0.5" transform="matrix(-1 0 0 1 8 12.5)" stroke="black"/>
<line y1="-0.5" x2="1" y2="-0.5" transform="matrix(-1 0 0 1 9 11.5)" stroke="black"/>
<line y1="-0.5" x2="1" y2="-0.5" transform="matrix(-1 0 0 1 10 6.5)" stroke="black"/>
<line y1="-0.5" x2="1" y2="-0.5" transform="matrix(-1 0 0 1 9 5.5)" stroke="black"/>
<line y1="-0.5" x2="1" y2="-0.5" transform="matrix(-1 0 0 1 8 4.5)" stroke="black"/>
<line y1="-0.5" x2="3" y2="-0.5" transform="matrix(0 1 1 0 7 2.5)" stroke="black"/>
<line y1="-0.5" x2="4" y2="-0.5" transform="matrix(1 0 0 -1 3 5.5)" stroke="black"/>
<line y1="-0.5" x2="4" y2="-0.5" transform="matrix(1 0 0 -1 3 9.5)" stroke="black"/>
<line y1="-0.5" x2="3" y2="-0.5" transform="matrix(0 1 1 0 7 10.5)" stroke="black"/>
<line y1="-0.5" x2="5" y2="-0.5" transform="matrix(0 1 1 0 3 5.5)" stroke="black"/>
</svg>
