<svg width="16" height="16" viewBox="0 0 16 16" fill="none" xmlns="http://www.w3.org/2000/svg">
<line y1="-1" x2="16" y2="-1" transform="matrix(0 -1 -1 0 0 16)" stroke="black" stroke-width="2"/>
<line y1="-1" x2="16" y2="-1" transform="matrix(0 -1 -1 0 14 16)" stroke="black" stroke-width="2"/>
<line y1="-1" x2="16" y2="-1" transform="matrix(-1 0 0 1 16 16)" stroke="black" stroke-width="2"/>
<line x1="7" y1="11" x2="7" y2="10" stroke="black"/>
<line x1="8" y1="12" x2="8" y2="11" stroke="black"/>
<line x1="9" y1="11" x2="9" y2="10" stroke="black"/>
<line x1="10" y1="10" x2="10" y2="9" stroke="black"/>
<line x1="12" y1="8" x2="12" y2="7" stroke="black"/>
<line x1="11" y1="9" x2="11" y2="8" stroke="black"/>
<line x1="6" y1="10" x2="6" y2="9" stroke="black"/>
<line x1="5" y1="9" x2="5" y2="8" stroke="black"/>
<line x1="4" y1="8" x2="4" y2="7" stroke="black"/>
<line x1="2.5" y1="6.5" x2="5.5" y2="6.5" stroke="black"/>
<line x1="6" y1="3" x2="6" y2="7" stroke="black"/>
<line x1="10" y1="3" x2="10" y2="7" stroke="black"/>
<line x1="10.5" y1="6.5" x2="13.5" y2="6.5" stroke="black"/>
<line x1="5.5" y1="2.5" x2="10.5" y2="2.5" stroke="black"/>
</svg>
