<svg width="22" height="24" viewBox="0 0 22 24" fill="none" xmlns="http://www.w3.org/2000/svg">
<line x1="10.5" y1="18" x2="11.5" y2="18" stroke="black"/>
<line x1="9.5" y1="17" x2="12.5" y2="17" stroke="black"/>
<line x1="8.5" y1="16" x2="13.5" y2="16" stroke="black"/>
<line x1="7.5" y1="15" x2="14.5" y2="15" stroke="black"/>
<line x1="6.5" y1="14" x2="15.5" y2="14" stroke="black"/>
<line x1="5.5" y1="13" x2="16.5" y2="13" stroke="black"/>
<rect x="6.5" y="9.5" width="6" height="9" transform="rotate(-90 6.5 9.5)" fill="black"/>
<line y1="-0.5" x2="13" y2="-0.5" transform="matrix(1 0 0 -1 4.5 11.5)" stroke="black"/>
<line y1="-0.5" x2="15" y2="-0.5" transform="matrix(1 0 0 -1 3.5 10.5)" stroke="black"/>
<line y1="-0.5" x2="17" y2="-0.5" transform="matrix(1 0 0 -1 2.5 9.5)" stroke="black"/>
<line y1="-1" x2="24" y2="-1" transform="matrix(0 -1 -1 0 0 24)" stroke="black" stroke-width="2"/>
<line y1="-1" x2="24" y2="-1" transform="matrix(0 -1 -1 0 20 24)" stroke="black" stroke-width="2"/>
<line y1="-1" x2="22" y2="-1" transform="matrix(-1 0 0 1 22 24)" stroke="black" stroke-width="2"/>
</svg>
