<svg width="24" height="24" viewBox="0 0 24 24" fill="none" xmlns="http://www.w3.org/2000/svg">
<line y1="-1" x2="24" y2="-1" transform="matrix(0 -1 -1 0 0 24)" stroke="black" stroke-width="2"/>
<line y1="-1" x2="24" y2="-1" transform="matrix(0 -1 -1 0 22 24)" stroke="black" stroke-width="2"/>
<line y1="-1" x2="24" y2="-1" transform="matrix(-1 0 0 1 24 24)" stroke="black" stroke-width="2"/>
<line y1="-0.5" x2="1" y2="-0.5" transform="matrix(1 0 0 -1 11.5 17.5)" stroke="black"/>
<line y1="-0.5" x2="1" y2="-0.5" transform="matrix(1 0 0 -1 10.5 16.5)" stroke="black"/>
<line y1="-0.5" x2="1" y2="-0.5" transform="matrix(1 0 0 -1 9.5 15.5)" stroke="black"/>
<line y1="-0.5" x2="1" y2="-0.5" transform="matrix(1 0 0 -1 8.5 14.5)" stroke="black"/>
<line y1="-0.5" x2="1" y2="-0.5" transform="matrix(1 0 0 -1 7.5 13.5)" stroke="black"/>
<line y1="-0.5" x2="1" y2="-0.5" transform="matrix(1 0 0 -1 6.5 12.5)" stroke="black"/>
<line y1="-0.5" x2="1" y2="-0.5" transform="matrix(1 0 0 -1 5.5 11.5)" stroke="black"/>
<line y1="-0.5" x2="1" y2="-0.5" transform="matrix(1 0 0 -1 4.5 10.5)" stroke="black"/>
<line y1="-0.5" x2="4" y2="-0.5" transform="matrix(1 0 0 -1 3.5 9.5)" stroke="black"/>
<line y1="-0.5" x2="7" y2="-0.5" transform="matrix(1 0 0 -1 8.5 3.5)" stroke="black"/>
<line y1="-0.5" x2="4" y2="-0.5" transform="matrix(1 0 0 -1 16.5 9.5)" stroke="black"/>
<line y1="-0.5" x2="7" y2="-0.5" transform="matrix(0 -1 -1 0 15.5 10.5)" stroke="black"/>
<line y1="-0.5" x2="7" y2="-0.5" transform="matrix(0 -1 -1 0 7.5 10.5)" stroke="black"/>
<line y1="-0.5" x2="1" y2="-0.5" transform="matrix(1 0 0 -1 12.5 16.5)" stroke="black"/>
<line y1="-0.5" x2="1" y2="-0.5" transform="matrix(1 0 0 -1 13.5 15.5)" stroke="black"/>
<line y1="-0.5" x2="1" y2="-0.5" transform="matrix(1 0 0 -1 14.5 14.5)" stroke="black"/>
<line y1="-0.5" x2="1" y2="-0.5" transform="matrix(1 0 0 -1 16.5 12.5)" stroke="black"/>
<line y1="-0.5" x2="1" y2="-0.5" transform="matrix(1 0 0 -1 15.5 13.5)" stroke="black"/>
<line y1="-0.5" x2="1" y2="-0.5" transform="matrix(1 0 0 -1 17.5 11.5)" stroke="black"/>
<line y1="-0.5" x2="1" y2="-0.5" transform="matrix(1 0 0 -1 18.5 10.5)" stroke="black"/>
</svg>
