<svg width="22" height="24" viewBox="0 0 22 24" fill="none" xmlns="http://www.w3.org/2000/svg">
<line x1="21" y1="24" x2="21" stroke="black" stroke-width="2"/>
<line x1="1" y1="24" x2="1" stroke="black" stroke-width="2"/>
<line y1="23" x2="22" y2="23" stroke="black" stroke-width="2"/>
<line x1="11.5" y1="18" x2="10.5" y2="18" stroke="black"/>
<line x1="12.5" y1="17" x2="11.5" y2="17" stroke="black"/>
<line x1="13.5" y1="16" x2="12.5" y2="16" stroke="black"/>
<line x1="14.5" y1="15" x2="13.5" y2="15" stroke="black"/>
<line x1="15.5" y1="14" x2="14.5" y2="14" stroke="black"/>
<line x1="16.5" y1="13" x2="15.5" y2="13" stroke="black"/>
<line x1="17.5" y1="12" x2="16.5" y2="12" stroke="black"/>
<line x1="18.5" y1="11" x2="17.5" y2="11" stroke="black"/>
<line x1="19.5" y1="10" x2="15.5" y2="10" stroke="black"/>
<line x1="14.5" y1="4" x2="7.5" y2="4" stroke="black"/>
<line x1="6.5" y1="10" x2="2.5" y2="10" stroke="black"/>
<line x1="7" y1="10.5" x2="7" y2="3.5" stroke="black"/>
<line x1="15" y1="10.5" x2="15" y2="3.5" stroke="black"/>
<line x1="10.5" y1="17" x2="9.5" y2="17" stroke="black"/>
<line x1="9.5" y1="16" x2="8.5" y2="16" stroke="black"/>
<line x1="8.5" y1="15" x2="7.5" y2="15" stroke="black"/>
<line x1="6.5" y1="13" x2="5.5" y2="13" stroke="black"/>
<line x1="7.5" y1="14" x2="6.5" y2="14" stroke="black"/>
<line x1="5.5" y1="12" x2="4.5" y2="12" stroke="black"/>
<line x1="4.5" y1="11" x2="3.5" y2="11" stroke="black"/>
</svg>
