<svg width="16" height="16" viewBox="0 0 16 16" fill="none" xmlns="http://www.w3.org/2000/svg">
<line x1="1" x2="1" y2="16" stroke="black" stroke-width="2"/>
<line x1="15" x2="15" y2="16" stroke="black" stroke-width="2"/>
<line x1="16" y1="1" y2="1" stroke="black" stroke-width="2"/>
<line y1="-0.5" x2="1" y2="-0.5" transform="matrix(0 1 1 0 7.5 5)" stroke="black"/>
<line y1="-0.5" x2="1" y2="-0.5" transform="matrix(0 1 1 0 8.5 4)" stroke="black"/>
<line y1="-0.5" x2="1" y2="-0.5" transform="matrix(0 1 1 0 9.5 5)" stroke="black"/>
<line y1="-0.5" x2="1" y2="-0.5" transform="matrix(0 1 1 0 10.5 6)" stroke="black"/>
<line y1="-0.5" x2="1" y2="-0.5" transform="matrix(0 1 1 0 12.5 8)" stroke="black"/>
<line y1="-0.5" x2="1" y2="-0.5" transform="matrix(0 1 1 0 11.5 7)" stroke="black"/>
<line y1="-0.5" x2="1" y2="-0.5" transform="matrix(0 1 1 0 6.5 6)" stroke="black"/>
<line y1="-0.5" x2="1" y2="-0.5" transform="matrix(0 1 1 0 5.5 7)" stroke="black"/>
<line y1="-0.5" x2="1" y2="-0.5" transform="matrix(0 1 1 0 4.5 8)" stroke="black"/>
<line y1="-0.5" x2="3" y2="-0.5" transform="matrix(1 0 0 -1 2.5 9)" stroke="black"/>
<line y1="-0.5" x2="4" y2="-0.5" transform="matrix(0 -1 -1 0 5.5 13)" stroke="black"/>
<line y1="-0.5" x2="4" y2="-0.5" transform="matrix(0 -1 -1 0 9.5 13)" stroke="black"/>
<line y1="-0.5" x2="3" y2="-0.5" transform="matrix(1 0 0 -1 10.5 9)" stroke="black"/>
<line y1="-0.5" x2="5" y2="-0.5" transform="matrix(1 0 0 -1 5.5 13)" stroke="black"/>
</svg>
