<svg width="22" height="24" viewBox="0 0 22 24" fill="none" xmlns="http://www.w3.org/2000/svg">
<line x1="1" x2="1" y2="24" stroke="black" stroke-width="2"/>
<line x1="21" x2="21" y2="24" stroke="black" stroke-width="2"/>
<line x1="22" y1="1" y2="1" stroke="black" stroke-width="2"/>
<line x1="10.5" y1="6" x2="11.5" y2="6" stroke="black"/>
<line x1="9.5" y1="7" x2="10.5" y2="7" stroke="black"/>
<line x1="8.5" y1="8" x2="9.5" y2="8" stroke="black"/>
<line x1="7.5" y1="9" x2="8.5" y2="9" stroke="black"/>
<line x1="6.5" y1="10" x2="7.5" y2="10" stroke="black"/>
<line x1="5.5" y1="11" x2="6.5" y2="11" stroke="black"/>
<line x1="4.5" y1="12" x2="5.5" y2="12" stroke="black"/>
<line x1="3.5" y1="13" x2="4.5" y2="13" stroke="black"/>
<line x1="2.5" y1="14" x2="6.5" y2="14" stroke="black"/>
<line x1="7.5" y1="20" x2="14.5" y2="20" stroke="black"/>
<line x1="15.5" y1="14" x2="19.5" y2="14" stroke="black"/>
<line x1="15" y1="13.5" x2="15" y2="20.5" stroke="black"/>
<line x1="7" y1="13.5" x2="7" y2="20.5" stroke="black"/>
<line x1="11.5" y1="7" x2="12.5" y2="7" stroke="black"/>
<line x1="12.5" y1="8" x2="13.5" y2="8" stroke="black"/>
<line x1="13.5" y1="9" x2="14.5" y2="9" stroke="black"/>
<line x1="15.5" y1="11" x2="16.5" y2="11" stroke="black"/>
<line x1="14.5" y1="10" x2="15.5" y2="10" stroke="black"/>
<line x1="16.5" y1="12" x2="17.5" y2="12" stroke="black"/>
<line x1="17.5" y1="13" x2="18.5" y2="13" stroke="black"/>
</svg>
