<svg width="24" height="24" viewBox="0 0 24 24" fill="none" xmlns="http://www.w3.org/2000/svg">
<line y1="-0.5" x2="1" y2="-0.5" transform="matrix(1 0 0 -1 11.5 5.5)" stroke="black"/>
<line y1="-0.5" x2="3" y2="-0.5" transform="matrix(1 0 0 -1 10.5 6.5)" stroke="black"/>
<line y1="-0.5" x2="5" y2="-0.5" transform="matrix(1 0 0 -1 9.5 7.5)" stroke="black"/>
<line y1="-0.5" x2="7" y2="-0.5" transform="matrix(1 0 0 -1 8.5 8.5)" stroke="black"/>
<line y1="-0.5" x2="9" y2="-0.5" transform="matrix(1 0 0 -1 7.5 9.5)" stroke="black"/>
<line y1="-0.5" x2="11" y2="-0.5" transform="matrix(1 0 0 -1 6.5 10.5)" stroke="black"/>
<rect width="6" height="9" transform="matrix(0 1 1 0 7.5 14.5)" fill="black"/>
<line x1="5.5" y1="12" x2="18.5" y2="12" stroke="black"/>
<line x1="4.5" y1="13" x2="19.5" y2="13" stroke="black"/>
<line x1="3.5" y1="14" x2="20.5" y2="14" stroke="black"/>
<line x1="1" x2="1" y2="24" stroke="black" stroke-width="2"/>
<line x1="23" x2="23" y2="24" stroke="black" stroke-width="2"/>
<line x1="24" y1="1" y2="1" stroke="black" stroke-width="2"/>
</svg>
