<svg xmlns="http://www.w3.org/2000/svg" xmlns:xlink="http://www.w3.org/1999/xlink" width="1200" zoomAndPan="magnify" viewBox="0 0 900 449.999984" height="600" preserveAspectRatio="xMidYMid meet" version="1.0"><defs><g/><clipPath id="c33e983f43"><path d="M 30.21875 36.742188 L 869.882812 36.742188 L 869.882812 417.945312 L 30.21875 417.945312 Z M 30.21875 36.742188 " clip-rule="nonzero"/></clipPath><clipPath id="419e32ee75"><path d="M 42.96875 36.742188 L 857.03125 36.742188 C 860.414062 36.742188 863.65625 38.085938 866.046875 40.476562 C 868.4375 42.867188 869.78125 46.109375 869.78125 49.492188 L 869.78125 405.195312 C 869.78125 408.578125 868.4375 411.820312 866.046875 414.210938 C 863.65625 416.601562 860.414062 417.945312 857.03125 417.945312 L 42.96875 417.945312 C 39.585938 417.945312 36.34375 416.601562 33.953125 414.210938 C 31.5625 411.820312 30.21875 408.578125 30.21875 405.195312 L 30.21875 49.492188 C 30.21875 46.109375 31.5625 42.867188 33.953125 40.476562 C 36.34375 38.085938 39.585938 36.742188 42.96875 36.742188 Z M 42.96875 36.742188 " clip-rule="nonzero"/></clipPath><clipPath id="131aed88b9"><path d="M 30.222656 36.742188 L 869.46875 36.742188 L 869.46875 417.742188 L 30.222656 417.742188 Z M 30.222656 36.742188 " clip-rule="nonzero"/></clipPath><clipPath id="774aba399f"><path d="M 42.972656 36.742188 L 857.019531 36.742188 C 860.402344 36.742188 863.644531 38.085938 866.035156 40.476562 C 868.425781 42.867188 869.769531 46.109375 869.769531 49.492188 L 869.769531 405.191406 C 869.769531 408.570312 868.425781 411.816406 866.035156 414.207031 C 863.644531 416.597656 860.402344 417.941406 857.019531 417.941406 L 42.972656 417.941406 C 39.589844 417.941406 36.347656 416.597656 33.957031 414.207031 C 31.566406 411.816406 30.222656 408.570312 30.222656 405.191406 L 30.222656 49.492188 C 30.222656 46.109375 31.566406 42.867188 33.957031 40.476562 C 36.347656 38.085938 39.589844 36.742188 42.972656 36.742188 Z M 42.972656 36.742188 " clip-rule="nonzero"/></clipPath><clipPath id="79ce17bfb3"><path d="M 154.304688 358.828125 L 161.804688 358.828125 L 161.804688 370 L 154.304688 370 Z M 154.304688 358.828125 " clip-rule="nonzero"/></clipPath><clipPath id="d8a823a48c"><path d="M 570.421875 361.359375 L 580 361.359375 L 580 364 L 570.421875 364 Z M 570.421875 361.359375 " clip-rule="nonzero"/></clipPath><clipPath id="8d2c5ebea7"><path d="M 570.421875 361.359375 L 580.171875 361.359375 L 580.171875 367.359375 L 570.421875 367.359375 Z M 570.421875 361.359375 " clip-rule="nonzero"/></clipPath></defs><rect x="-90" width="1080" fill="#ffffff" y="-44.999998" height="539.99998" fill-opacity="1"/><rect x="-90" width="1080" fill="#9d94d7" y="-44.999998" height="539.99998" fill-opacity="1"/><g clip-path="url(#c33e983f43)"><g clip-path="url(#419e32ee75)"><path fill="#ffffff" d="M 30.21875 36.742188 L 869.761719 36.742188 L 869.761719 417.945312 L 30.21875 417.945312 Z M 30.21875 36.742188 " fill-opacity="1" fill-rule="nonzero"/></g></g><g clip-path="url(#131aed88b9)"><g clip-path="url(#774aba399f)"><path stroke-linecap="butt" transform="matrix(0.75, 0, 0, 0.75, 30.222126, 36.740769)" fill="none" stroke-linejoin="miter" d="M 17.000709 0.00189179 L 1102.396696 0.00189179 C 1106.907114 0.00189179 1111.230031 1.793559 1114.417531 4.981059 C 1117.605032 8.16856 1119.396699 12.491477 1119.396699 17.001894 L 1119.396699 491.267586 C 1119.396699 495.772795 1117.605032 500.100921 1114.417531 503.288422 C 1111.230031 506.475922 1106.907114 508.267589 1102.396696 508.267589 L 17.000709 508.267589 C 12.490292 508.267589 8.167374 506.475922 4.979874 503.288422 C 1.792374 500.100921 0.000706645 495.772795 0.000706645 491.267586 L 0.000706645 17.001894 C 0.000706645 12.491477 1.792374 8.16856 4.979874 4.981059 C 8.167374 1.793559 12.490292 0.00189179 17.000709 0.00189179 Z M 17.000709 0.00189179 " stroke="#262832" stroke-width="6" stroke-opacity="1" stroke-miterlimit="4"/></g></g><g fill="#262832" fill-opacity="1"><g transform="translate(195.042509, 316.730816)"><g><path d="M 126.953125 -156.1875 C 131.148438 -156.1875 135.25 -154.914062 139.25 -152.375 C 143.257812 -149.84375 147.097656 -146.335938 150.765625 -141.859375 C 154.441406 -137.390625 157.863281 -132.21875 161.03125 -126.34375 C 164.207031 -120.46875 167.078125 -114.175781 169.640625 -107.46875 C 172.210938 -100.757812 174.414062 -93.867188 176.25 -86.796875 C 178.09375 -79.722656 179.515625 -72.78125 180.515625 -65.96875 C 181.515625 -59.164062 182.015625 -52.757812 182.015625 -46.75 C 182.015625 -40.007812 181.578125 -33.671875 180.703125 -27.734375 C 179.835938 -21.796875 178.351562 -16.570312 176.25 -12.0625 C 174.15625 -7.5625 171.285156 -4.039062 167.640625 -1.5 C 164.003906 1.03125 159.414062 2.296875 153.875 2.296875 C 148.800781 2.296875 144.328125 1.097656 140.453125 -1.296875 C 136.585938 -3.703125 133.351562 -7.085938 130.75 -11.453125 C 128.144531 -15.828125 126.140625 -20.96875 124.734375 -26.875 C 123.335938 -32.78125 122.539062 -39.238281 122.34375 -46.25 C 122.070312 -53.65625 122.351562 -60.363281 123.1875 -66.375 C 124.03125 -72.382812 125.179688 -77.90625 126.640625 -82.9375 C 128.109375 -87.976562 129.710938 -92.734375 131.453125 -97.203125 C 133.191406 -101.679688 134.84375 -106.039062 136.40625 -110.28125 C 137.976562 -114.519531 139.265625 -118.820312 140.265625 -123.1875 C 141.265625 -127.5625 141.765625 -132.21875 141.765625 -137.15625 C 141.765625 -140.5 141.078125 -143.4375 139.703125 -145.96875 C 138.335938 -148.507812 136.519531 -150.476562 134.25 -151.875 C 131.988281 -153.28125 129.488281 -153.984375 126.75 -153.984375 C 122.28125 -153.984375 118.375 -153.0625 115.03125 -151.21875 C 111.695312 -149.382812 108.859375 -146.863281 106.515625 -143.65625 C 104.179688 -140.457031 102.25 -136.738281 100.71875 -132.5 C 99.1875 -128.257812 97.953125 -123.738281 97.015625 -118.9375 C 97.878906 -114.132812 98.507812 -109.257812 98.90625 -104.3125 C 99.3125 -99.375 99.546875 -94.535156 99.609375 -89.796875 C 99.679688 -85.066406 99.679688 -80.644531 99.609375 -76.53125 C 99.546875 -72.425781 99.515625 -68.804688 99.515625 -65.671875 C 99.515625 -64.671875 99.195312 -64.171875 98.5625 -64.171875 C 97.925781 -64.171875 97.609375 -64.671875 97.609375 -65.671875 C 97.609375 -69.742188 97.609375 -74.316406 97.609375 -79.390625 C 97.609375 -84.460938 97.488281 -89.75 97.25 -95.25 C 97.019531 -100.757812 96.539062 -106.21875 95.8125 -111.625 C 95.070312 -106.21875 94.585938 -100.757812 94.359375 -95.25 C 94.128906 -89.75 94.015625 -84.460938 94.015625 -79.390625 C 94.015625 -74.316406 94.015625 -69.742188 94.015625 -65.671875 C 94.015625 -64.671875 93.695312 -64.171875 93.0625 -64.171875 C 92.425781 -64.171875 92.109375 -64.671875 92.109375 -65.671875 C 92.109375 -68.804688 92.070312 -72.425781 92 -76.53125 C 91.9375 -80.644531 91.9375 -85.066406 92 -89.796875 C 92.070312 -94.535156 92.304688 -99.375 92.703125 -104.3125 C 93.109375 -109.257812 93.742188 -114.132812 94.609375 -118.9375 C 93.671875 -123.738281 92.4375 -128.257812 90.90625 -132.5 C 89.375 -136.738281 87.4375 -140.457031 85.09375 -143.65625 C 82.757812 -146.863281 79.921875 -149.382812 76.578125 -151.21875 C 73.242188 -153.0625 69.34375 -153.984375 64.875 -153.984375 C 62.132812 -153.984375 59.628906 -153.28125 57.359375 -151.875 C 55.097656 -150.476562 53.28125 -148.507812 51.90625 -145.96875 C 50.539062 -143.4375 49.859375 -140.5 49.859375 -137.15625 C 49.859375 -132.21875 50.359375 -127.5625 51.359375 -123.1875 C 52.359375 -118.820312 53.640625 -114.519531 55.203125 -110.28125 C 56.773438 -106.039062 58.429688 -101.679688 60.171875 -97.203125 C 61.910156 -92.734375 63.507812 -87.976562 64.96875 -82.9375 C 66.4375 -77.90625 67.585938 -72.382812 68.421875 -66.375 C 69.265625 -60.363281 69.550781 -53.65625 69.28125 -46.25 C 69.082031 -39.238281 68.28125 -32.78125 66.875 -26.875 C 65.476562 -20.96875 63.476562 -15.828125 60.875 -11.453125 C 58.269531 -7.085938 55.046875 -3.703125 51.203125 -1.296875 C 47.367188 1.097656 42.882812 2.296875 37.75 2.296875 C 32.207031 2.296875 27.613281 1.03125 23.96875 -1.5 C 20.332031 -4.039062 17.460938 -7.5625 15.359375 -12.0625 C 13.265625 -16.570312 11.78125 -21.796875 10.90625 -27.734375 C 10.039062 -33.671875 9.609375 -40.007812 9.609375 -46.75 C 9.609375 -52.757812 10.109375 -59.164062 11.109375 -65.96875 C 12.109375 -72.78125 13.523438 -79.722656 15.359375 -86.796875 C 17.203125 -93.867188 19.40625 -100.757812 21.96875 -107.46875 C 24.539062 -114.175781 27.410156 -120.46875 30.578125 -126.34375 C 33.753906 -132.21875 37.175781 -137.390625 40.84375 -141.859375 C 44.519531 -146.335938 48.359375 -149.84375 52.359375 -152.375 C 56.367188 -154.914062 60.472656 -156.1875 64.671875 -156.1875 C 70.742188 -156.1875 75.816406 -154.765625 79.890625 -151.921875 C 83.960938 -149.085938 87.28125 -145.285156 89.84375 -140.515625 C 92.414062 -135.742188 94.40625 -130.421875 95.8125 -124.546875 C 97.21875 -130.421875 99.203125 -135.742188 101.765625 -140.515625 C 104.335938 -145.285156 107.675781 -149.085938 111.78125 -151.921875 C 115.882812 -154.765625 120.941406 -156.1875 126.953125 -156.1875 Z M 126.953125 -156.1875 "/></g></g></g><g fill="#262832" fill-opacity="1"><g transform="translate(384.858652, 316.730816)"><g><path d="M 69.1875 -156.1875 C 76.320312 -156.1875 83.410156 -155.285156 90.453125 -153.484375 C 97.492188 -151.679688 104.269531 -149.109375 110.78125 -145.765625 C 117.289062 -142.429688 123.332031 -138.460938 128.90625 -133.859375 C 134.476562 -129.253906 139.347656 -124.128906 143.515625 -118.484375 C 147.691406 -112.847656 150.929688 -106.804688 153.234375 -100.359375 C 155.535156 -93.921875 156.6875 -87.195312 156.6875 -80.1875 C 156.6875 -62.375 153.597656 -47.328125 147.421875 -35.046875 C 141.242188 -22.765625 132.128906 -13.46875 120.078125 -7.15625 C 108.035156 -0.851562 93.207031 2.296875 75.59375 2.296875 C 71.988281 2.296875 68.984375 1.5 66.578125 -0.09375 C 64.171875 -1.695312 62.398438 -3.734375 61.265625 -6.203125 C 60.128906 -8.671875 59.597656 -11.207031 59.671875 -13.8125 C 57.203125 -8.8125 53.914062 -4.875 49.8125 -2 C 45.707031 0.863281 40.75 2.296875 34.9375 2.296875 C 29.394531 2.296875 24.804688 1.03125 21.171875 -1.5 C 17.535156 -4.039062 14.664062 -7.5625 12.5625 -12.0625 C 10.457031 -16.570312 8.972656 -21.796875 8.109375 -27.734375 C 7.242188 -33.671875 6.8125 -40.007812 6.8125 -46.75 C 6.8125 -52.757812 7.226562 -59.164062 8.0625 -65.96875 C 8.894531 -72.78125 10.160156 -79.722656 11.859375 -86.796875 C 13.566406 -93.867188 15.6875 -100.757812 18.21875 -107.46875 C 20.757812 -114.175781 23.710938 -120.46875 27.078125 -126.34375 C 30.453125 -132.21875 34.257812 -137.390625 38.5 -141.859375 C 42.738281 -146.335938 47.410156 -149.84375 52.515625 -152.375 C 57.617188 -154.914062 63.175781 -156.1875 69.1875 -156.1875 Z M 76.484375 0 C 80.828125 0 84.066406 -0.613281 86.203125 -1.84375 C 88.335938 -3.082031 89.640625 -4.898438 90.109375 -7.296875 C 90.578125 -9.703125 90.507812 -12.59375 89.90625 -15.96875 C 89.300781 -19.34375 88.363281 -23.179688 87.09375 -27.484375 C 85.832031 -31.785156 84.53125 -36.488281 83.1875 -41.59375 C 81.851562 -46.695312 80.703125 -52.117188 79.734375 -57.859375 C 78.773438 -63.609375 78.296875 -69.648438 78.296875 -75.984375 C 78.296875 -80.191406 78.84375 -84.710938 79.9375 -89.546875 C 81.039062 -94.390625 82.328125 -99.3125 83.796875 -104.3125 C 85.265625 -109.320312 86.613281 -114.226562 87.84375 -119.03125 C 89.082031 -123.84375 89.882812 -128.347656 90.25 -132.546875 C 90.625 -136.753906 90.222656 -140.457031 89.046875 -143.65625 C 87.878906 -146.863281 85.660156 -149.382812 82.390625 -151.21875 C 79.117188 -153.0625 74.414062 -153.984375 68.28125 -153.984375 C 62.007812 -153.984375 56.90625 -152.296875 52.96875 -148.921875 C 49.03125 -145.554688 47.0625 -140.601562 47.0625 -134.0625 C 47.0625 -129.113281 47.5625 -124.519531 48.5625 -120.28125 C 49.5625 -116.050781 50.84375 -111.929688 52.40625 -107.921875 C 53.976562 -103.921875 55.628906 -99.816406 57.359375 -95.609375 C 59.097656 -91.398438 60.703125 -86.894531 62.171875 -82.09375 C 63.640625 -77.289062 64.789062 -71.96875 65.625 -66.125 C 66.457031 -60.28125 66.742188 -53.65625 66.484375 -46.25 C 66.347656 -41.445312 65.945312 -36.875 65.28125 -32.53125 C 64.613281 -28.195312 63.644531 -24.195312 62.375 -20.53125 L 62.578125 -20.53125 C 61.703125 -18.320312 61.28125 -16.015625 61.3125 -13.609375 C 61.351562 -11.210938 61.90625 -8.992188 62.96875 -6.953125 C 64.039062 -4.921875 65.675781 -3.253906 67.875 -1.953125 C 70.082031 -0.648438 72.953125 0 76.484375 0 Z M 76.484375 0 "/></g></g></g><g fill="#262832" fill-opacity="1"><g transform="translate(544.540459, 316.730816)"><g><path d="M 7.015625 -129.65625 C 7.015625 -134.1875 8.046875 -138.304688 10.109375 -142.015625 C 12.179688 -145.722656 15.035156 -148.675781 18.671875 -150.875 C 22.304688 -153.082031 26.425781 -154.1875 31.03125 -154.1875 C 34.769531 -154.1875 38.507812 -153.398438 42.25 -151.828125 C 45.988281 -150.253906 49.160156 -147.632812 51.765625 -143.96875 C 53.898438 -141.03125 55.617188 -137.554688 56.921875 -133.546875 C 58.222656 -129.546875 59.351562 -125.359375 60.3125 -120.984375 C 61.28125 -116.617188 62.265625 -112.347656 63.265625 -108.171875 C 64.273438 -104.003906 65.492188 -100.21875 66.921875 -96.8125 C 68.359375 -93.40625 70.191406 -90.703125 72.421875 -88.703125 C 74.660156 -86.703125 77.550781 -85.703125 81.09375 -85.703125 C 84.632812 -85.703125 87.519531 -86.703125 89.75 -88.703125 C 91.988281 -90.703125 93.820312 -93.40625 95.25 -96.8125 C 96.6875 -100.21875 97.90625 -104.003906 98.90625 -108.171875 C 99.914062 -112.347656 100.90625 -116.617188 101.875 -120.984375 C 102.84375 -125.359375 103.972656 -129.546875 105.265625 -133.546875 C 106.566406 -137.554688 108.285156 -141.03125 110.421875 -143.96875 C 113.023438 -147.632812 116.195312 -150.253906 119.9375 -151.828125 C 123.675781 -153.398438 127.414062 -154.1875 131.15625 -154.1875 C 135.894531 -154.1875 140.066406 -153.066406 143.671875 -150.828125 C 147.273438 -148.585938 150.09375 -145.613281 152.125 -141.90625 C 154.164062 -138.207031 155.1875 -134.125 155.1875 -129.65625 C 155.1875 -125.382812 154.117188 -121.296875 151.984375 -117.390625 C 149.847656 -113.484375 146.925781 -109.84375 143.21875 -106.46875 C 139.507812 -103.101562 135.269531 -100.066406 130.5 -97.359375 C 125.726562 -94.660156 120.707031 -92.34375 115.4375 -90.40625 C 110.164062 -88.46875 104.890625 -86.984375 99.609375 -85.953125 C 94.335938 -84.921875 89.367188 -84.40625 84.703125 -84.40625 C 91.910156 -82.46875 98.914062 -80.195312 105.71875 -77.59375 C 112.53125 -74.988281 118.875 -71.929688 124.75 -68.421875 C 130.625 -64.921875 135.78125 -60.914062 140.21875 -56.40625 C 144.65625 -51.90625 148.125 -46.832031 150.625 -41.1875 C 153.125 -35.550781 154.375 -29.226562 154.375 -22.21875 C 154.375 -18.488281 153.640625 -15.070312 152.171875 -11.96875 C 150.703125 -8.863281 148.679688 -6.191406 146.109375 -3.953125 C 143.546875 -1.710938 140.628906 0.0195312 137.359375 1.25 C 134.085938 2.488281 130.648438 3.109375 127.046875 3.109375 C 121.171875 3.109375 115.960938 1.90625 111.421875 -0.5 C 106.890625 -2.90625 103.070312 -6.222656 99.96875 -10.453125 C 96.863281 -14.691406 94.507812 -19.597656 92.90625 -25.171875 C 91.300781 -30.753906 90.5 -36.679688 90.5 -42.953125 C 90.5 -46.953125 90.632812 -50.867188 90.90625 -54.703125 C 91.175781 -58.546875 91.3125 -62.101562 91.3125 -65.375 C 91.3125 -68.507812 91.078125 -71.34375 90.609375 -73.875 C 90.140625 -76.414062 89.203125 -78.519531 87.796875 -80.1875 C 87.335938 -80.789062 86.539062 -81.441406 85.40625 -82.140625 C 84.269531 -82.847656 82.898438 -83.203125 81.296875 -83.203125 L 80.890625 -83.203125 C 79.023438 -83.203125 77.609375 -82.847656 76.640625 -82.140625 C 75.671875 -81.441406 74.921875 -80.789062 74.390625 -80.1875 C 72.984375 -78.519531 72.046875 -76.4375 71.578125 -73.9375 C 71.117188 -71.4375 70.890625 -68.648438 70.890625 -65.578125 C 70.890625 -62.304688 71.035156 -58.734375 71.328125 -54.859375 C 71.628906 -50.992188 71.78125 -47.054688 71.78125 -43.046875 C 71.78125 -36.710938 70.960938 -30.753906 69.328125 -25.171875 C 67.691406 -19.597656 65.304688 -14.691406 62.171875 -10.453125 C 59.035156 -6.222656 55.195312 -2.90625 50.65625 -0.5 C 46.113281 1.90625 40.941406 3.109375 35.140625 3.109375 C 30.265625 3.109375 25.757812 2.023438 21.625 -0.140625 C 17.488281 -2.316406 14.148438 -5.320312 11.609375 -9.15625 C 9.078125 -13 7.8125 -17.351562 7.8125 -22.21875 C 7.8125 -29.226562 9.0625 -35.570312 11.5625 -41.25 C 14.0625 -46.925781 17.546875 -52.015625 22.015625 -56.515625 C 26.492188 -61.023438 31.6875 -65.015625 37.59375 -68.484375 C 43.5 -71.953125 49.835938 -75.003906 56.609375 -77.640625 C 63.390625 -80.273438 70.347656 -82.53125 77.484375 -84.40625 C 72.484375 -84.40625 67.257812 -84.921875 61.8125 -85.953125 C 56.375 -86.984375 51.035156 -88.46875 45.796875 -90.40625 C 40.554688 -92.34375 35.597656 -94.675781 30.921875 -97.40625 C 26.253906 -100.144531 22.117188 -103.195312 18.515625 -106.5625 C 14.910156 -109.9375 12.09375 -113.5625 10.0625 -117.4375 C 8.03125 -121.3125 7.015625 -125.382812 7.015625 -129.65625 Z M 7.015625 -129.65625 "/></g></g></g><g clip-path="url(#79ce17bfb3)"><path fill="#ffffff" d="M 158.113281 358.832031 C 156.007812 358.832031 154.304688 360.539062 154.304688 362.640625 C 154.304688 365.496094 158.113281 369.714844 158.113281 369.714844 C 158.113281 369.714844 161.921875 365.496094 161.921875 362.640625 C 161.921875 360.539062 160.214844 358.832031 158.113281 358.832031 Z M 158.113281 364 C 157.363281 364 156.753906 363.390625 156.753906 362.640625 C 156.753906 361.890625 157.363281 361.28125 158.113281 361.28125 C 158.863281 361.28125 159.472656 361.890625 159.472656 362.640625 C 159.472656 363.390625 158.863281 364 158.113281 364 Z M 158.113281 364 " fill-opacity="1" fill-rule="nonzero"/></g><g clip-path="url(#d8a823a48c)"><path fill="#ffffff" d="M 575.285156 363.988281 L 579.875 361.457031 C 579.898438 361.445312 579.921875 361.433594 579.945312 361.429688 C 579.875 361.386719 579.792969 361.359375 579.707031 361.359375 L 570.867188 361.359375 C 570.792969 361.359375 570.71875 361.378906 570.65625 361.414062 Z M 575.285156 363.988281 " fill-opacity="1" fill-rule="nonzero"/></g><g clip-path="url(#8d2c5ebea7)"><path fill="#ffffff" d="M 580.121094 361.894531 L 575.410156 364.496094 C 575.371094 364.515625 575.328125 364.527344 575.285156 364.527344 C 575.246094 364.527344 575.203125 364.515625 575.164062 364.496094 L 570.425781 361.855469 L 570.425781 366.75 C 570.425781 366.996094 570.625 367.195312 570.867188 367.195312 L 579.707031 367.195312 C 579.949219 367.195312 580.148438 366.996094 580.148438 366.75 L 580.148438 361.875 C 580.140625 361.882812 580.132812 361.886719 580.121094 361.894531 Z M 580.121094 361.894531 " fill-opacity="1" fill-rule="nonzero"/></g></svg>